# xmcd CD database file
#
# Track frame offsets:
#	182
#	29142
#	60747
#	78032
#	111867
#	131425
#	153192
#	167665
#	187597
#	206432
#	229952
#	249572
#
# Disc length: 3552 seconds
#
# Revision: 4
# Processed by: cddbd v1.5.1PL0 Copyright (c) Steve Scherf et al.
# Submitted via: CDex 1.51
#
DISCID=930dde0c
DTITLE=Fleetwood Mac - Madison Blues Live
DYEAR=1994
DGENRE=Blues
TTITLE0=Black magic woman
TTITLE1=Can't hold on
TTITLE2=Got to move
TTITLE3=Green manalishi
TTITLE4=Like it this way
TTITLE5=Madison blues
TTITLE6=Oh well
TTITLE7=Only you
TTITLE8=Red hot mama
TTITLE9=Sandy Mary
TTITLE10=Teenage darling
TTITLE11=World in harmony
EXTD=YEAR: 1994
EXTT0=
EXTT1=
EXTT2=
EXTT3=
EXTT4=
EXTT5=
EXTT6=
EXTT7=
EXTT8=
EXTT9=
EXTT10=
EXTT11=
PLAYORDER=
